<svg xmlns="http://www.w3.org/2000/svg" xmlns:xlink="http://www.w3.org/1999/xlink" xmlns:lucid="lucid" width="1547.5" height="740"><g transform="translate(-87.49999999999994 -20)" lucid:page-tab-id="0_0"><path d="M1300 166c0-3.3 2.7-6 6-6h288c3.3 0 6 2.7 6 6v488c0 3.3-2.7 6-6 6h-288c-3.3 0-6-2.7-6-6zM140 166c0-3.3 2.7-6 6-6h968c3.3 0 6 2.7 6 6v368c0 3.3-2.7 6-6 6H146c-3.3 0-6-2.7-6-6z" stroke="#5e5e5e" stroke-width="3" fill="#fff"/><use xlink:href="#a" transform="matrix(1,0,0,1,145,165) translate(464.6604938271605 191.21527777777777)"/><path d="M480 246c0-3.3 2.7-6 6-6h248c3.3 0 6 2.7 6 6v268c0 3.3-2.7 6-6 6H486c-3.3 0-6-2.7-6-6zM820 336c0-3.3 2.7-6 6-6h248c3.3 0 6 2.7 6 6v108c0 3.3-2.7 6-6 6H826c-3.3 0-6-2.7-6-6z" stroke="#5e5e5e" stroke-width="3" fill="#fff"/><use xlink:href="#b" transform="matrix(1,0,0,1,825,335) translate(31.296296296296305 45.27777777777778)"/><use xlink:href="#c" transform="matrix(1,0,0,1,825,335) translate(81.79012345679013 71.94444444444446)"/><path d="M1330 336c0-3.3 2.7-6 6-6h218c3.3 0 6 2.7 6 6v108c0 3.3-2.7 6-6 6h-218c-3.3 0-6-2.7-6-6z" stroke="#5e5e5e" stroke-width="3" fill="#fff"/><use xlink:href="#b" transform="matrix(1,0,0,1,1335,335) translate(16.296296296296305 45.27777777777778)"/><use xlink:href="#c" transform="matrix(1,0,0,1,1335,335) translate(66.79012345679013 71.94444444444446)"/><path d="M1365 526c0-3.3 2.7-6 6-6h148c3.3 0 6 2.7 6 6v68c0 3.3-2.7 6-6 6h-148c-3.3 0-6-2.7-6-6z" stroke="#5e5e5e" stroke-width="3" fill="#fff"/><use xlink:href="#d" transform="matrix(1,0,0,1,1370,525) translate(36.17283950617284 26.52777777777778)"/><use xlink:href="#e" transform="matrix(1,0,0,1,1370,525) translate(33.7037037037037 53.19444444444445)"/><path d="M1445 517.5V470" stroke="#5e5e5e" stroke-width="2" fill="none"/><path d="M1446 518.5h-2v-1.03h2" fill="#5e5e5e"/><path d="M1445 454.74l4.64 14.26h-9.28z" stroke="#5e5e5e" stroke-width="2" fill="#5e5e5e"/><path d="M240 326c0-3.3 2.7-6 6-6h148c3.3 0 6 2.7 6 6v48c0 3.3-2.7 6-6 6H246c-3.3 0-6-2.7-6-6z" stroke="#5e5e5e" stroke-width="3" fill="#fff"/><use xlink:href="#f" transform="matrix(1,0,0,1,245,325) translate(23.20987654320988 30.27777777777778)"/><use xlink:href="#g" transform="matrix(1,0,0,1,245,325) translate(79.93827160493828 30.27777777777778)"/><path d="M240 406c0-3.3 2.7-6 6-6h148c3.3 0 6 2.7 6 6v48c0 3.3-2.7 6-6 6H246c-3.3 0-6-2.7-6-6z" stroke="#5e5e5e" stroke-width="3" fill="#fff"/><use xlink:href="#h" transform="matrix(1,0,0,1,245,405) translate(1.1111111111111143 17.77777777777778)"/><use xlink:href="#i" transform="matrix(1,0,0,1,245,405) translate(47.901234567901234 17.77777777777778)"/><use xlink:href="#g" transform="matrix(1,0,0,1,245,405) translate(51.574074074074076 44.44444444444444)"/><path d="M860 186c0-3.3 2.7-6 6-6h228c3.3 0 6 2.7 6 6v48c0 3.3-2.7 6-6 6H866c-3.3 0-6-2.7-6-6z" stroke="#000" stroke-opacity="0" stroke-width="3" fill="#fff" fill-opacity="0"/><use xlink:href="#j" transform="matrix(1,0,0,1,865,185) translate(45.4320987654321 30.27777777777778)"/><path d="M144.24 84.24c-2.34-2.34-2.34-6.14 0-8.48l31.52-31.52C178.1 41.9 180 42.7 180 46v8c0 3.3 2.7 6 6 6h888c3.3 0 6-2.7 6-6v-8c0-3.3 1.9-4.1 4.24-1.76l31.52 31.52c2.34 2.34 2.34 6.14 0 8.48l-31.52 31.52c-2.34 2.34-4.24 1.55-4.24-1.76v-8c0-3.3-2.7-6-6-6H186c-3.3 0-6 2.7-6 6v8c0 3.3-1.9 4.1-4.24 1.76z" stroke="#5e5e5e" stroke-width="3" fill="#fff"/><use xlink:href="#k" transform="matrix(1,0,0,1,145,45) translate(437.78277777777777 39.65277777777778)"/><path d="M960.95 626c0-3.3 2.7-6 6-6h148c3.32 0 6 2.7 6 6v28c0 3.3-2.68 6-6 6h-148c-3.3 0-6-2.7-6-6z" stroke="#5e5e5e" stroke-width="3" fill="#fff"/><use xlink:href="#l" transform="matrix(1,0,0,1,965.9537656295433,625) translate(6.925925925925938 17.97222222222222)"/><use xlink:href="#m" transform="matrix(1,0,0,1,965.9537656295433,625) translate(33.5925925925926 17.97222222222222)"/><use xlink:href="#n" transform="matrix(1,0,0,1,965.9537656295433,625) translate(88.80246913580247 17.97222222222222)"/><path d="M1040.95 617.5V560" stroke="#5e5e5e" stroke-width="2" fill="none"/><path d="M1041.95 618.5h-2v-1.03h2" fill="#5e5e5e"/><path d="M1040.95 544.74l4.64 14.26h-9.28z" stroke="#5e5e5e" stroke-width="2" fill="#5e5e5e"/><path d="M300 586c0-3.3 2.7-6 6-6h148c3.3 0 6 2.7 6 6v48c0 3.3-2.7 6-6 6H306c-3.3 0-6-2.7-6-6z" stroke="#5e5e5e" stroke-width="3" fill="#fff"/><use xlink:href="#o" transform="matrix(1,0,0,1,305,585) translate(15.898631111111108 28.14448)"/><use xlink:href="#p" transform="matrix(1,0,0,1,305,585) translate(44.09128777777778 28.14448)"/><use xlink:href="#q" transform="matrix(1,0,0,1,305,585) translate(113.45934666666668 28.14448)"/><path d="M520 686c0-3.3 2.7-6 6-6h148c3.3 0 6 2.7 6 6v48c0 3.3-2.7 6-6 6H526c-3.3 0-6-2.7-6-6z" stroke="#5e5e5e" stroke-width="3" fill="#fff"/><use xlink:href="#r" transform="matrix(1,0,0,1,525,685) translate(5.577619999999982 28.14448)"/><use xlink:href="#s" transform="matrix(1,0,0,1,525,685) translate(90.15559 28.14448)"/><path d="M300 686c0-3.3 2.7-6 6-6h148c3.3 0 6 2.7 6 6v48c0 3.3-2.7 6-6 6H306c-3.3 0-6-2.7-6-6z" stroke="#5e5e5e" stroke-width="3" fill="#fff"/><use xlink:href="#t" transform="matrix(1,0,0,1,305,685) translate(20.15432098765433 30.27777777777778)"/><use xlink:href="#u" transform="matrix(1,0,0,1,305,685) translate(51.018518518518526 30.27777777777778)"/><use xlink:href="#v" transform="matrix(1,0,0,1,305,685) translate(83.05555555555556 30.27777777777778)"/><path d="M680.2 611H480v-2h200.2m128.8-4.87l-.92 3.42-2.53 2.53-3.42.92H711.8v-2h90.07l2.64-.7 1.8-1.8.7-2.63V576h2m0-21.33h-2V542.5h2M479 614.64L464.74 610l14.26-4.64z" fill="#5e5e5e"/><path d="M480 616l-18.5-6 18.5-6m-12.03 6l10.03 3.26v-6.52M809 542.53h-2v-1.03h2" fill="#5e5e5e"/><use xlink:href="#w" transform="matrix(1,0,0,1,680.1975308641976,599.3333333333334) translate(0 14.222222222222223)"/><path d="M756.2 711H700v-2h56.2m52.8-4.87l-.92 3.42-2.53 2.53-3.42.92H787.8v-2h14.07l2.64-.7 1.8-1.8.7-2.63V576h2m0-21.33h-2V542.5h2M699 714.64L684.74 710l14.26-4.64z" fill="#5e5e5e"/><path d="M700 716l-18.5-6 18.5-6m-12.03 6l10.03 3.26v-6.52M809 542.53h-2v-1.03h2" fill="#5e5e5e"/><use xlink:href="#w" transform="matrix(1,0,0,1,756.1975308641976,699.3333333333334) translate(0 14.222222222222223)"/><use xlink:href="#x" transform="matrix(1,0,0,1,749.8518518518518,554.6666666666667) translate(0 14.222222222222223)"/><use xlink:href="#y" transform="matrix(1,0,0,1,749.8518518518518,554.6666666666667) translate(21.7283950617284 14.222222222222223)"/><use xlink:href="#z" transform="matrix(1,0,0,1,749.8518518518518,554.6666666666667) translate(58.271604938271615 14.222222222222223)"/><path d="M1279.24 84.24c-2.34-2.34-2.34-6.14 0-8.48l31.52-31.52c2.34-2.34 4.24-1.55 4.24 1.76v8c0 3.3 2.7 6 6 6h248c3.3 0 6-2.7 6-6v-8c0-3.3 1.9-4.1 4.24-1.76l31.52 31.52c2.34 2.34 2.34 6.14 0 8.48l-31.52 31.52c-2.34 2.34-4.24 1.55-4.24-1.76v-8c0-3.3-2.7-6-6-6h-248c-3.3 0-6 2.7-6 6v8c0 3.3-1.9 4.1-4.24 1.76z" stroke="#5e5e5e" stroke-width="3" fill="#fff"/><use xlink:href="#A" transform="matrix(1,0,0,1,1280,45) translate(135.40623456790124 39.65277777777778)"/><path d="M1200.7 734.32l.3.7-.3.7-.7.3-.7-.3-.3-.7.3-.7.7-.3zm0-3.98l.3.7-.3.7-.7.3-.7-.3-.3-.7.3-.7.7-.3zm0-3.98l.3.7-.3.7-.7.3-.7-.3-.3-.7.3-.7.7-.3zm0-3.98l.3.7-.3.72-.7.3-.7-.3-.3-.7.3-.72.7-.3zm0-3.98l.3.7-.3.72-.7.3-.7-.3-.3-.7.3-.72.7-.3zm0-3.97l.3.7-.3.7-.7.3-.7-.3-.3-.7.3-.7.7-.3zm0-3.98l.3.7-.3.7-.7.3-.7-.3-.3-.7.3-.7.7-.3zm0-3.98l.3.7-.3.7-.7.3-.7-.3-.3-.7.3-.7.7-.3zm0-3.98l.3.7-.3.7-.7.3-.7-.3-.3-.7.3-.7.7-.3zm0-3.98l.3.7-.3.7-.7.3-.7-.3-.3-.7.3-.7.7-.3zm0-3.98l.3.7-.3.7-.7.3-.7-.3-.3-.7.3-.7.7-.3zm0-3.98l.3.7-.3.7-.7.3-.7-.3-.3-.7.3-.7.7-.3zm0-3.98l.3.7-.3.72-.7.3-.7-.3-.3-.7.3-.72.7-.3zm0-3.98l.3.7-.3.72-.7.3-.7-.3-.3-.7.3-.72.7-.3zm0-3.97l.3.7-.3.7-.7.3-.7-.3-.3-.7.3-.7.7-.3zm0-3.98l.3.7-.3.7-.7.3-.7-.3-.3-.7.3-.7.7-.3zm0-3.98l.3.7-.3.7-.7.3-.7-.3-.3-.7.3-.7.7-.3zm0-3.98l.3.7-.3.7-.7.3-.7-.3-.3-.7.3-.7.7-.3zm0-3.98l.3.7-.3.7-.7.3-.7-.3-.3-.7.3-.7.7-.3zm0-3.98l.3.7-.3.7-.7.3-.7-.3-.3-.7.3-.7.7-.3zm0-3.98l.3.7-.3.7-.7.3-.7-.3-.3-.7.3-.7.7-.3zm0-3.98l.3.7-.3.72-.7.3-.7-.3-.3-.7.3-.72.7-.3zm0-3.98l.3.7-.3.72-.7.3-.7-.3-.3-.7.3-.72.7-.3zm0-3.97l.3.7-.3.7-.7.3-.7-.3-.3-.7.3-.7.7-.3zm0-3.98l.3.7-.3.7-.7.3-.7-.3-.3-.7.3-.7.7-.3zm0-3.98l.3.7-.3.7-.7.3-.7-.3-.3-.7.3-.7.7-.3zm0-3.98l.3.7-.3.7-.7.3-.7-.3-.3-.7.3-.7.7-.3zm0-3.98l.3.7-.3.7-.7.3-.7-.3-.3-.7.3-.7.7-.3zm0-3.98l.3.7-.3.7-.7.3-.7-.3-.3-.7.3-.7.7-.3zm0-3.98l.3.7-.3.7-.7.3-.7-.3-.3-.7.3-.7.7-.3zm0-3.98l.3.7-.3.72-.7.3-.7-.3-.3-.7.3-.72.7-.3zm0-3.98l.3.7-.3.72-.7.3-.7-.3-.3-.7.3-.72.7-.3zm0-3.97l.3.7-.3.7-.7.3-.7-.3-.3-.7.3-.7.7-.3zm0-3.98l.3.7-.3.7-.7.3-.7-.3-.3-.7.3-.7.7-.3zm0-3.98l.3.7-.3.7-.7.3-.7-.3-.3-.7.3-.7.7-.3zm0-3.98l.3.7-.3.7-.7.3-.7-.3-.3-.7.3-.7.7-.3zm0-3.98l.3.7-.3.7-.7.3-.7-.3-.3-.7.3-.7.7-.3zm0-3.98l.3.7-.3.7-.7.3-.7-.3-.3-.7.3-.7.7-.3zm0-3.98l.3.7-.3.7-.7.3-.7-.3-.3-.7.3-.7.7-.3zm0-3.98l.3.7-.3.72-.7.3-.7-.3-.3-.7.3-.72.7-.3zm0-3.98l.3.7-.3.72-.7.3-.7-.3-.3-.7.3-.72.7-.3zm0-3.97l.3.7-.3.7-.7.3-.7-.3-.3-.7.3-.7.7-.3zm0-3.98l.3.7-.3.7-.7.3-.7-.3-.3-.7.3-.7.7-.3zm0-3.98l.3.7-.3.7-.7.3-.7-.3-.3-.7.3-.7.7-.3zm0-3.98l.3.7-.3.7-.7.3-.7-.3-.3-.7.3-.7.7-.3zm0-3.98l.3.7-.3.7-.7.3-.7-.3-.3-.7.3-.7.7-.3zm0-3.98l.3.7-.3.7-.7.3-.7-.3-.3-.7.3-.7.7-.3zm0-3.98l.3.7-.3.7-.7.3-.7-.3-.3-.7.3-.7.7-.3zm0-3.98l.3.7-.3.72-.7.3-.7-.3-.3-.7.3-.72.7-.3zm0-3.98l.3.7-.3.72-.7.3-.7-.3-.3-.7.3-.72.7-.3zm0-3.97l.3.7-.3.7-.7.3-.7-.3-.3-.7.3-.7.7-.3zm0-3.98l.3.7-.3.7-.7.3-.7-.3-.3-.7.3-.7.7-.3zm0-3.98l.3.7-.3.7-.7.3-.7-.3-.3-.7.3-.7.7-.3zm0-3.98l.3.7-.3.7-.7.3-.7-.3-.3-.7.3-.7.7-.3zm0-3.98l.3.7-.3.7-.7.3-.7-.3-.3-.7.3-.7.7-.3zm0-3.98l.3.7-.3.7-.7.3-.7-.3-.3-.7.3-.7.7-.3zm0-3.98l.3.7-.3.7-.7.3-.7-.3-.3-.7.3-.7.7-.3zm0-3.98l.3.7-.3.72-.7.3-.7-.3-.3-.7.3-.72.7-.3zm0-3.98l.3.7-.3.72-.7.3-.7-.3-.3-.7.3-.72.7-.3zm0-3.97l.3.7-.3.7-.7.3-.7-.3-.3-.7.3-.7.7-.3zm0-3.98l.3.7-.3.7-.7.3-.7-.3-.3-.7.3-.7.7-.3zm0-3.98l.3.7-.3.7-.7.3-.7-.3-.3-.7.3-.7.7-.3zm0-3.98l.3.7-.3.7-.7.3-.7-.3-.3-.7.3-.7.7-.3zm0-3.98l.3.7-.3.7-.7.3-.7-.3-.3-.7.3-.7.7-.3zm0-3.98l.3.7-.3.7-.7.3-.7-.3-.3-.7.3-.7.7-.3zm0-3.98l.3.7-.3.7-.7.3-.7-.3-.3-.7.3-.7.7-.3zm0-3.98l.3.7-.3.72-.7.3-.7-.3-.3-.7.3-.72.7-.3zm0-3.98l.3.7-.3.72-.7.3-.7-.3-.3-.7.3-.72.7-.3zm0-3.97l.3.7-.3.7-.7.3-.7-.3-.3-.7.3-.7.7-.3zm0-3.98l.3.7-.3.7-.7.3-.7-.3-.3-.7.3-.7.7-.3zm0-3.98l.3.7-.3.7-.7.3-.7-.3-.3-.7.3-.7.7-.3zm0-3.98l.3.7-.3.7-.7.3-.7-.3-.3-.7.3-.7.7-.3zm0-3.98l.3.7-.3.7-.7.3-.7-.3-.3-.7.3-.7.7-.3zm0-3.98l.3.7-.3.7-.7.3-.7-.3-.3-.7.3-.7.7-.3zm0-3.98l.3.7-.3.7-.7.3-.7-.3-.3-.7.3-.7.7-.3zm0-3.98l.3.7-.3.72-.7.3-.7-.3-.3-.7.3-.72.7-.3zm0-3.98l.3.7-.3.72-.7.3-.7-.3-.3-.7.3-.72.7-.3zm0-3.97l.3.7-.3.7-.7.3-.7-.3-.3-.7.3-.7.7-.3zm0-3.98l.3.7-.3.7-.7.3-.7-.3-.3-.7.3-.7.7-.3zm0-3.98l.3.7-.3.7-.7.3-.7-.3-.3-.7.3-.7.7-.3zm0-3.98l.3.7-.3.7-.7.3-.7-.3-.3-.7.3-.7.7-.3zm0-3.98l.3.7-.3.7-.7.3-.7-.3-.3-.7.3-.7.7-.3zm0-3.98l.3.7-.3.7-.7.3-.7-.3-.3-.7.3-.7.7-.3zm0-3.98l.3.7-.3.7-.7.3-.7-.3-.3-.7.3-.7.7-.3zm.3-3.27l-.3.7-.7.3-.7-.3-.3-.7.1-.23h1.8z" fill="#5e5e5e"/><path fill="#5e5e5e"/><path d="M1201 740h-2v-1.03h2M1201 41c0 .55-.45 1-1 1s-1-.45-1-1 .45-1 1-1 1 .45 1 1zm0 3.98c0 .55-.45 1-1 1s-1-.45-1-1c0-.56.45-1 1-1s1 .44 1 1zm0 3.97c0 .55-.45 1-1 1s-1-.45-1-1 .45-1 1-1 1 .45 1 1zm0 3.98c0 .55-.45 1-1 1s-1-.45-1-1c0-.56.45-1 1-1s1 .44 1 1zm0 3.97c0 .55-.45 1-1 1s-1-.45-1-1 .45-1 1-1 1 .45 1 1zm0 3.98c0 .55-.45 1-1 1s-1-.45-1-1c0-.56.45-1 1-1s1 .44 1 1zm0 3.97c0 .55-.45 1-1 1s-1-.45-1-1 .45-1 1-1 1 .45 1 1zm0 3.98c0 .55-.45 1-1 1s-1-.45-1-1c0-.56.45-1 1-1s1 .44 1 1zm0 3.97c0 .55-.45 1-1 1s-1-.45-1-1 .45-1 1-1 1 .45 1 1zm0 3.98c0 .55-.45 1-1 1s-1-.45-1-1c0-.56.45-1 1-1s1 .44 1 1zm0 3.97c0 .55-.45 1-1 1s-1-.45-1-1 .45-1 1-1 1 .45 1 1zm0 3.98c0 .55-.45 1-1 1s-1-.45-1-1c0-.56.45-1 1-1s1 .44 1 1zm0 3.97c0 .55-.45 1-1 1s-1-.45-1-1 .45-1 1-1 1 .45 1 1zm0 3.98c0 .55-.45 1-1 1s-1-.45-1-1c0-.56.45-1 1-1s1 .44 1 1zm0 3.97c0 .55-.45 1-1 1s-1-.45-1-1 .45-1 1-1 1 .45 1 1zm0 3.98c0 .55-.45 1-1 1s-1-.45-1-1c0-.56.45-1 1-1s1 .44 1 1zm0 3.97c0 .55-.45 1-1 1s-1-.45-1-1 .45-1 1-1 1 .45 1 1zm0 3.98c0 .55-.45 1-1 1s-1-.45-1-1c0-.56.45-1 1-1s1 .44 1 1zm0 3.97c0 .55-.45 1-1 1s-1-.45-1-1 .45-1 1-1 1 .45 1 1zm0 3.98c0 .55-.45 1-1 1s-1-.45-1-1c0-.56.45-1 1-1s1 .44 1 1zm0 3.97c0 .55-.45 1-1 1s-1-.45-1-1 .45-1 1-1 1 .45 1 1zm0 3.98c0 .55-.45 1-1 1s-1-.45-1-1c0-.56.45-1 1-1s1 .44 1 1zm0 3.97c0 .55-.45 1-1 1s-1-.45-1-1 .45-1 1-1 1 .45 1 1zm0 3.98c0 .55-.45 1-1 1s-1-.45-1-1c0-.56.45-1 1-1s1 .44 1 1zm0 3.97c0 .55-.45 1-1 1s-1-.45-1-1 .45-1 1-1 1 .45 1 1zm0 3.98c0 .55-.45 1-1 1s-1-.45-1-1c0-.56.45-1 1-1s1 .44 1 1zm0 3.97c0 .55-.45 1-1 1s-1-.45-1-1 .45-1 1-1 1 .45 1 1zm0 3.98c0 .55-.45 1-1 1s-1-.45-1-1c0-.56.45-1 1-1s1 .44 1 1zm0 3.97c0 .55-.45 1-1 1s-1-.45-1-1 .45-1 1-1 1 .45 1 1zm0 3.98c0 .55-.45 1-1 1s-1-.45-1-1c0-.56.45-1 1-1s1 .44 1 1zm0 3.97c0 .55-.45 1-1 1s-1-.45-1-1 .45-1 1-1 1 .45 1 1zm0 3.98c0 .55-.45 1-1 1s-1-.45-1-1c0-.56.45-1 1-1s1 .44 1 1zm0 3.97c0 .55-.45 1-1 1s-1-.45-1-1 .45-1 1-1 1 .45 1 1zm0 3.98c0 .55-.45 1-1 1s-1-.45-1-1c0-.56.45-1 1-1s1 .44 1 1zm0 3.97c0 .55-.45 1-1 1s-1-.45-1-1 .45-1 1-1 1 .45 1 1zm0 3.98c0 .55-.45 1-1 1s-1-.45-1-1c0-.56.45-1 1-1s1 .44 1 1zm0 3.97c0 .55-.45 1-1 1s-1-.45-1-1 .45-1 1-1 1 .45 1 1zm0 3.98c0 .55-.45 1-1 1s-1-.45-1-1c0-.56.45-1 1-1s1 .44 1 1zm0 3.97c0 .55-.45 1-1 1s-1-.45-1-1 .45-1 1-1 1 .45 1 1zm0 3.98c0 .55-.45 1-1 1s-1-.45-1-1c0-.56.45-1 1-1s1 .44 1 1zm0 3.97c0 .55-.45 1-1 1s-1-.45-1-1 .45-1 1-1 1 .45 1 1zm0 3.98c0 .55-.45 1-1 1s-1-.45-1-1c0-.56.45-1 1-1s1 .44 1 1zm0 3.97c0 .55-.45 1-1 1s-1-.45-1-1 .45-1 1-1 1 .45 1 1zm0 3.98c0 .55-.45 1-1 1s-1-.45-1-1c0-.56.45-1 1-1s1 .44 1 1zm0 3.97c0 .55-.45 1-1 1s-1-.45-1-1 .45-1 1-1 1 .45 1 1zm0 3.98c0 .55-.45 1-1 1s-1-.45-1-1c0-.56.45-1 1-1s1 .44 1 1zm0 3.97c0 .55-.45 1-1 1s-1-.45-1-1 .45-1 1-1 1 .45 1 1zm0 3.98c0 .55-.45 1-1 1s-1-.45-1-1c0-.56.45-1 1-1s1 .44 1 1zm0 3.97c0 .55-.45 1-1 1s-1-.45-1-1 .45-1 1-1 1 .45 1 1zm0 3.98c0 .55-.45 1-1 1s-1-.45-1-1c0-.56.45-1 1-1s1 .44 1 1zm0 3.97c0 .55-.45 1-1 1s-1-.45-1-1 .45-1 1-1 1 .45 1 1zm0 3.98c0 .55-.45 1-1 1s-1-.45-1-1c0-.56.45-1 1-1s1 .44 1 1zm0 3.97c0 .55-.45 1-1 1s-1-.45-1-1 .45-1 1-1 1 .45 1 1zm0 3.98c0 .55-.45 1-1 1s-1-.45-1-1c0-.56.45-1 1-1s1 .44 1 1zm0 3.97c0 .55-.45 1-1 1s-1-.45-1-1 .45-1 1-1 1 .45 1 1zm0 3.98c0 .55-.45 1-1 1s-1-.45-1-1c0-.56.45-1 1-1s1 .44 1 1zm0 3.97c0 .55-.45 1-1 1s-1-.45-1-1 .45-1 1-1 1 .45 1 1zm0 3.98c0 .55-.45 1-1 1s-1-.45-1-1c0-.56.45-1 1-1s1 .44 1 1zm0 3.97c0 .55-.45 1-1 1s-1-.45-1-1 .45-1 1-1 1 .45 1 1zm0 3.98c0 .55-.45 1-1 1s-1-.45-1-1c0-.56.45-1 1-1s1 .44 1 1zm0 3.97c0 .55-.45 1-1 1s-1-.45-1-1 .45-1 1-1 1 .45 1 1zm0 3.98c0 .55-.45 1-1 1s-1-.45-1-1c0-.56.45-1 1-1s1 .44 1 1zm0 3.97c0 .55-.45 1-1 1s-1-.45-1-1 .45-1 1-1 1 .45 1 1zm0 3.98c0 .55-.45 1-1 1s-1-.45-1-1c0-.56.45-1 1-1s1 .44 1 1zm0 3.97c0 .55-.45 1-1 1s-1-.45-1-1 .45-1 1-1 1 .45 1 1zm0 3.98c0 .55-.45 1-1 1s-1-.45-1-1c0-.56.45-1 1-1s1 .44 1 1zm0 3.97c0 .55-.45 1-1 1s-1-.45-1-1 .45-1 1-1 1 .45 1 1zm0 3.98c0 .55-.45 1-1 1s-1-.45-1-1c0-.56.45-1 1-1s1 .44 1 1zm0 3.97c0 .55-.45 1-1 1s-1-.45-1-1 .45-1 1-1 1 .45 1 1zm0 3.98c0 .55-.45 1-1 1s-1-.45-1-1c0-.56.45-1 1-1s1 .44 1 1zm0 3.97c0 .55-.45 1-1 1s-1-.45-1-1 .45-1 1-1 1 .45 1 1zm0 3.98c0 .55-.45 1-1 1s-1-.45-1-1c0-.56.45-1 1-1s1 .44 1 1zm0 3.97c0 .55-.45 1-1 1s-1-.45-1-1 .45-1 1-1 1 .45 1 1zm0 3.98c0 .55-.45 1-1 1s-1-.45-1-1c0-.56.45-1 1-1s1 .44 1 1zm0 3.97c0 .55-.45 1-1 1s-1-.45-1-1 .45-1 1-1 1 .45 1 1zm0 3.98c0 .55-.45 1-1 1s-1-.45-1-1c0-.56.45-1 1-1s1 .44 1 1zm0 3.97c0 .55-.45 1-1 1s-1-.45-1-1 .45-1 1-1 1 .45 1 1zm0 3.98c0 .55-.45 1-1 1s-1-.45-1-1c0-.56.45-1 1-1s1 .44 1 1zm0 3.97c0 .55-.45 1-1 1s-1-.45-1-1 .45-1 1-1 1 .45 1 1zm0 3.98c0 .55-.45 1-1 1s-1-.45-1-1c0-.56.45-1 1-1s1 .44 1 1z" fill="#5e5e5e"/><path d="M1200 41.03V40M1200 358.97V360M517.5 710H480" stroke="#5e5e5e" stroke-width="2" fill="none"/><path d="M518.5 711h-1.03v-2h1.03" fill="#5e5e5e"/><path d="M464.74 710l14.26-4.64v9.28z" stroke="#5e5e5e" stroke-width="2" fill="#5e5e5e"/><path d="M137.5 395.98h-32.87l-2.64.7-1.8 1.8-.7 2.63v252.77l.7 2.64 1.8 1.8 2.63.7h39.93v2h-40.2l-3.4-.92-2.54-2.53-.92-3.42v-253.3l.92-3.4 2.53-2.53 3.42-.92h33.13m80 265.02v2h-45.33v-2" fill="#5e5e5e"/><path d="M218.5 661h-1.03v-2h1.03M138.5 395.98h-1.03v-2h1.03" fill="#5e5e5e"/><use xlink:href="#B" transform="matrix(1,0,0,1,144.561376529845,649.3333333333334) translate(0 14.222222222222223)"/><path d="M297.5 610h-32.25c-3.3 0-6 2.7-6 6v38c0 3.3-2.7 6-6 6H238.5" stroke="#5e5e5e" stroke-width="2" fill="none"/><path d="M298.5 611h-1.03v-2h1.03" fill="#5e5e5e"/><path d="M223.24 660l14.26-4.64v9.28z" stroke="#5e5e5e" stroke-width="2" fill="#5e5e5e"/><path d="M297.5 710h-32.25c-3.3 0-6-2.7-6-6v-38c0-3.3-2.7-6-6-6H238.5" stroke="#5e5e5e" stroke-width="2" fill="none"/><path d="M298.5 711h-1.03v-2h1.03" fill="#5e5e5e"/><path d="M223.24 660l14.26-4.64v9.28z" stroke="#5e5e5e" stroke-width="2" fill="#5e5e5e"/><path d="M220 430h-15.5c-3.3 0-6-2.7-6-6v-68c0-3.3 2.7-6 6-6H220" stroke="#5e5e5e" stroke-width="2" fill="none"/><path d="M235.26 430L221 434.64v-9.28zM235.26 350L221 354.64v-9.28z" stroke="#5e5e5e" stroke-width="2" fill="#5e5e5e"/><path d="M440 182.67c0-3.32 2.7-6 6-6h318c3.3 0 6 2.68 6 6V234c0 3.3-2.7 6-6 6H446c-3.3 0-6-2.7-6-6z" stroke="#000" stroke-opacity="0" stroke-width="3" fill="#fff" fill-opacity="0"/><use xlink:href="#C" transform="matrix(1,0,0,1,445,181.66666666666669) translate(27.40740740740739 31.27777777777778)"/><use xlink:href="#D" transform="matrix(1,0,0,1,445,181.66666666666669) translate(154.3827160493827 31.27777777777778)"/><use xlink:href="#E" transform="matrix(1,0,0,1,445,181.66666666666669) translate(208.64197530864197 31.27777777777778)"/><path d="M540 330c0 5.52-4.48 10-10 10s-10-4.48-10-10 4.48-10 10-10 10 4.48 10 10zM540 370c0 5.52-4.48 10-10 10s-10-4.48-10-10 4.48-10 10-10 10 4.48 10 10zM540 410c0 5.52-4.48 10-10 10s-10-4.48-10-10 4.48-10 10-10 10 4.48 10 10zM590 310c0 5.52-4.48 10-10 10s-10-4.48-10-10 4.48-10 10-10 10 4.48 10 10zM590 350c0 5.52-4.48 10-10 10s-10-4.48-10-10 4.48-10 10-10 10 4.48 10 10zM590 390c0 5.52-4.48 10-10 10s-10-4.48-10-10 4.48-10 10-10 10 4.48 10 10zM590 430c0 5.52-4.48 10-10 10s-10-4.48-10-10 4.48-10 10-10 10 4.48 10 10zM540 450c0 5.52-4.48 10-10 10s-10-4.48-10-10 4.48-10 10-10 10 4.48 10 10zM590 470c0 5.52-4.48 10-10 10s-10-4.48-10-10 4.48-10 10-10 10 4.48 10 10zM640 350c0 5.52-4.48 10-10 10s-10-4.48-10-10 4.48-10 10-10 10 4.48 10 10zM640 390c0 5.52-4.48 10-10 10s-10-4.48-10-10 4.48-10 10-10 10 4.48 10 10zM640 430c0 5.52-4.48 10-10 10s-10-4.48-10-10 4.48-10 10-10 10 4.48 10 10z" stroke="#5e5e5e" stroke-width="3" fill="#fff"/><path d="M542.5 330h6.5c3.3 0 6-2.68 6-6v-8c0-3.3 2.7-6 6-6h6.5" stroke="#5e5e5e" stroke-width="2" fill="none"/><path d="M542.54 331h-1.18l.16-.98-.14-1.02h1.16M568.48 310.02l.16.98h-1.18v-2h1.16" fill="#5e5e5e"/><path d="M542.5 330h6.5c3.3 0 6 2.7 6 6v8c0 3.3 2.7 6 6 6h6.5" stroke="#5e5e5e" stroke-width="2" fill="none"/><path d="M542.54 331h-1.18l.16-.98-.14-1.02h1.16M568.48 350.02l.16.98h-1.18v-2h1.16" fill="#5e5e5e"/><path d="M542.5 370h6.5c3.3 0 6 2.7 6 6v8c0 3.3 2.7 6 6 6h6.5" stroke="#5e5e5e" stroke-width="2" fill="none"/><path d="M542.54 371h-1.18l.16-.98-.14-1.02h1.16M568.48 390.02l.16.98h-1.18v-2h1.16" fill="#5e5e5e"/><path d="M542.5 370h6.5c3.3 0 6-2.68 6-6v-8c0-3.3 2.7-6 6-6h6.5" stroke="#5e5e5e" stroke-width="2" fill="none"/><path d="M542.54 371h-1.18l.16-.98-.14-1.02h1.16M568.48 350.02l.16.98h-1.18v-2h1.16" fill="#5e5e5e"/><path d="M542.5 410h6.5c3.3 0 6 2.7 6 6v8c0 3.3 2.7 6 6 6h6.5" stroke="#5e5e5e" stroke-width="2" fill="none"/><path d="M542.54 411h-1.18l.16-.98-.14-1.02h1.16M568.48 430.02l.16.98h-1.18v-2h1.16" fill="#5e5e5e"/><path d="M542.5 410h6.5c3.3 0 6-2.7 6-6v-8c0-3.3 2.7-6 6-6h6.5" stroke="#5e5e5e" stroke-width="2" fill="none"/><path d="M542.54 411h-1.18l.16-.98-.14-1.02h1.16M568.48 390.02l.16.98h-1.18v-2h1.16" fill="#5e5e5e"/><path d="M542.5 450h6.5c3.3 0 6-2.7 6-6v-8c0-3.3 2.7-6 6-6h6.5" stroke="#5e5e5e" stroke-width="2" fill="none"/><path d="M542.54 451h-1.18l.16-.98-.14-1.02h1.16M568.48 430.02l.16.98h-1.18v-2h1.16" fill="#5e5e5e"/><path d="M542.5 450h6.5c3.3 0 6 2.7 6 6v8c0 3.3 2.7 6 6 6h6.5" stroke="#5e5e5e" stroke-width="2" fill="none"/><path d="M542.54 451h-1.18l.16-.98-.14-1.02h1.16M568.48 470.02l.16.98h-1.18v-2h1.16" fill="#5e5e5e"/><path d="M592.5 310h6.5c3.3 0 6 2.7 6 6v28c0 3.3 2.7 6 6 6h6.5" stroke="#5e5e5e" stroke-width="2" fill="none"/><path d="M592.54 311h-1.18l.16-.98-.14-1.02h1.16M618.48 350.02l.16.98h-1.18v-2h1.16" fill="#5e5e5e"/><path d="M592.5 350h25" stroke="#5e5e5e" stroke-width="2" fill="none"/><path d="M592.54 351h-1.18l.16-.98-.14-1.02h1.16M618.48 350.02l.16.98h-1.18v-2h1.16" fill="#5e5e5e"/><path d="M592.5 390h25" stroke="#5e5e5e" stroke-width="2" fill="none"/><path d="M592.54 391h-1.18l.16-.98-.14-1.02h1.16M618.48 390.02l.16.98h-1.18v-2h1.16" fill="#5e5e5e"/><path d="M592.5 390h6.5c3.3 0 6-2.68 6-6v-28c0-3.3 2.7-6 6-6h6.5" stroke="#5e5e5e" stroke-width="2" fill="none"/><path d="M592.54 391h-1.18l.16-.98-.14-1.02h1.16M618.48 350.02l.16.98h-1.18v-2h1.16" fill="#5e5e5e"/><path d="M592.5 390h6.5c3.3 0 6 2.7 6 6v28c0 3.3 2.7 6 6 6h6.5" stroke="#5e5e5e" stroke-width="2" fill="none"/><path d="M592.54 391h-1.18l.16-.98-.14-1.02h1.16M618.48 430.02l.16.98h-1.18v-2h1.16" fill="#5e5e5e"/><path d="M592.5 430h25" stroke="#5e5e5e" stroke-width="2" fill="none"/><path d="M592.54 431h-1.18l.16-.98-.14-1.02h1.16M618.48 430.02l.16.98h-1.18v-2h1.16" fill="#5e5e5e"/><path d="M592.5 470h6.5c3.3 0 6-2.68 6-6v-28c0-3.3 2.7-6 6-6h6.5" stroke="#5e5e5e" stroke-width="2" fill="none"/><path d="M592.54 471h-1.18l.16-.98-.14-1.02h1.16M618.48 430.02l.16.98h-1.18v-2h1.16" fill="#5e5e5e"/><path d="M500 246c0-3.3 2.7-6 6-6h208c3.3 0 6 2.7 6 6v48c0 3.3-2.7 6-6 6H506c-3.3 0-6-2.7-6-6z" stroke="#000" stroke-opacity="0" stroke-width="3" fill="#fff" fill-opacity="0"/><use xlink:href="#F" transform="matrix(1,0,0,1,505,245) translate(17.271604938271622 29.84722222222222)"/><use xlink:href="#G" transform="matrix(1,0,0,1,505,245) translate(105.91358024691357 29.84722222222222)"/><path d="M402.5 430H454c3.3 0 6-2.7 6-6v-8c0-3.3 2.68-6 6-6h51.5" stroke="#5e5e5e" stroke-width="2" fill="none"/><path d="M402.53 431h-1.03v-2h1.03M518.48 410.02l.16.98h-1.18v-2h1.16" fill="#5e5e5e"/><path d="M402.5 430H454c3.3 0 6 2.7 6 6v8c0 3.3 2.68 6 6 6h51.5" stroke="#5e5e5e" stroke-width="2" fill="none"/><path d="M402.53 431h-1.03v-2h1.03M518.48 450.02l.16.98h-1.18v-2h1.16" fill="#5e5e5e"/><path d="M402.5 350H454c3.3 0 6-2.7 6-6v-8c0-3.3 2.68-6 6-6h51.5" stroke="#5e5e5e" stroke-width="2" fill="none"/><path d="M402.53 351h-1.03v-2h1.03M518.48 330.02l.16.98h-1.18v-2h1.16" fill="#5e5e5e"/><path d="M402.5 350H454c3.3 0 6 2.7 6 6v8c0 3.3 2.68 6 6 6h51.5" stroke="#5e5e5e" stroke-width="2" fill="none"/><path d="M402.53 351h-1.03v-2h1.03M518.48 370.02l.16.98h-1.18v-2h1.16" fill="#5e5e5e"/><path d="M139.5 394.98h58M197.47 394.98h1.03" stroke="#5e5e5e" stroke-width="2" fill="none"/><path d="M656.68 351H642.5v-2h14.18M800 350.97l-70 .03h-11.24v-2H730l70-.03" fill="#5e5e5e"/><path d="M642.54 351h-1.18l.16-.98-.14-1.02h1.16M815.26 349.97L801 354.6v-9.27z" fill="#5e5e5e"/><path d="M818.5 349.97l-18.5 6v-12m2 9.26l10.03-3.26L802 346.7" fill="#5e5e5e"/><use xlink:href="#H" transform="matrix(1,0,0,1,656.6840376094341,339.3361722031896) translate(0 14.222222222222223)"/><use xlink:href="#I" transform="matrix(1,0,0,1,656.6840376094341,339.3361722031896) translate(52.19753086419754 14.222222222222223)"/><path d="M656.68 391H642.5v-2h14.18M800 391h-81.25v-2H800" fill="#5e5e5e"/><path d="M642.54 391h-1.18l.16-.98-.14-1.02h1.16M815.26 390L801 394.64v-9.28z" fill="#5e5e5e"/><path d="M818.5 390l-18.5 6v-12m2 9.26l10.03-3.26-10.03-3.26" fill="#5e5e5e"/><g><use xlink:href="#H" transform="matrix(1,0,0,1,656.6752491307083,379.33333333333337) translate(0 14.222222222222223)"/><use xlink:href="#J" transform="matrix(1,0,0,1,656.6752491307083,379.33333333333337) translate(52.19753086419754 14.222222222222223)"/></g><path d="M800 429.03v2l-70-.03h-11.74v-2H730m-87.5 2v-2h14.68v2" fill="#5e5e5e"/><path d="M642.54 431h-1.18l.16-.98-.14-1.02h1.16M815.26 430.03L801 434.67v-9.27z" fill="#5e5e5e"/><path d="M818.5 430.03l-18.5 6v-12m2 9.26l10.03-3.27-10.03-3.26" fill="#5e5e5e"/><g><use xlink:href="#H" transform="matrix(1,0,0,1,657.1775905456652,419.3333333333333) translate(0 14.222222222222223)"/><use xlink:href="#K" transform="matrix(1,0,0,1,657.1775905456652,419.3333333333333) translate(52.19753086419754 14.222222222222223)"/></g><path d="M750 272.67c0-3.32 2.7-6 6-6h38c3.3 0 6 2.68 6 6V324c0 3.3-2.7 6-6 6h-38c-3.3 0-6-2.7-6-6z" stroke="#000" stroke-opacity="0" stroke-width="3" fill="#fff" fill-opacity="0"/><g><use xlink:href="#L" transform="matrix(1,0,0,1,755,271.6666666666667) translate(0 13.666666666666671)"/><use xlink:href="#M" transform="matrix(1,0,0,1,755,271.6666666666667) translate(0 29.666666666666668)"/><use xlink:href="#N" transform="matrix(1,0,0,1,755,271.6666666666667) translate(0 45.666666666666664)"/></g><path d="M420 272.67c0-3.32 2.7-6 6-6h38c3.3 0 6 2.68 6 6V324c0 3.3-2.7 6-6 6h-38c-3.3 0-6-2.7-6-6z" stroke="#000" stroke-opacity="0" stroke-width="3" fill="#fff" fill-opacity="0"/><g><use xlink:href="#O" transform="matrix(1,0,0,1,425,271.6666666666667) translate(-2.185185185185169 21.666666666666668)"/><use xlink:href="#P" transform="matrix(1,0,0,1,425,271.6666666666667) translate(11.8888888888889 37.666666666666664)"/></g><path d="M1144.04 391h-61.54v-2h61.54m165.96 2h-44.04v-2H1310" fill="#5e5e5e"/><path d="M1082.53 391h-1.03v-2h1.03M1325.26 390l-14.26 4.64v-9.28z" fill="#5e5e5e"/><path d="M1328.5 390l-18.5 6v-12m2 9.26l10.03-3.26-10.03-3.26" fill="#5e5e5e"/><g><use xlink:href="#Q" transform="matrix(1,0,0,1,1144.037037037037,379.3333333333333) translate(0 14.222222222222223)"/><use xlink:href="#R" transform="matrix(1,0,0,1,1144.037037037037,379.3333333333333) translate(42.0246913580247 14.222222222222223)"/><use xlink:href="#S" transform="matrix(1,0,0,1,1144.037037037037,379.3333333333333) translate(82.41975308641976 14.222222222222223)"/></g><defs><path fill="#333" d="M127-220V0H93v-220H8v-28h204v28h-85" id="T"/><path fill="#333" d="M100-194c63 0 86 42 84 106H49c0 40 14 67 53 68 26 1 43-12 49-29l28 8c-11 28-37 45-77 45C44 4 14-33 15-96c1-61 26-98 85-98zm52 81c6-60-76-77-97-28-3 7-6 17-6 28h103" id="U"/><path fill="#333" d="M141 0L90-78 38 0H4l68-98-65-92h35l48 74 47-74h35l-64 92 68 98h-35" id="V"/><path fill="#333" d="M59-47c-2 24 18 29 38 22v24C64 9 27 4 27-40v-127H5v-23h24l9-43h21v43h35v23H59v120" id="W"/><g id="a"><use transform="matrix(0.06172839506172839,0,0,0.06172839506172839,0,0)" xlink:href="#T"/><use transform="matrix(0.06172839506172839,0,0,0.06172839506172839,11.049382716049381,0)" xlink:href="#U"/><use transform="matrix(0.06172839506172839,0,0,0.06172839506172839,23.39506172839506,0)" xlink:href="#V"/><use transform="matrix(0.06172839506172839,0,0,0.06172839506172839,34.50617283950617,0)" xlink:href="#W"/></g><path fill="#333" d="M233-177c-1 41-23 64-60 70L243 0h-38l-65-103H63V0H30v-248c88 3 205-21 203 71zM63-129c60-2 137 13 137-47 0-61-80-42-137-45v92" id="X"/><path fill="#333" d="M140-251c81 0 123 46 123 126C263-46 219 4 140 4 59 4 17-45 17-125s42-126 123-126zm0 227c63 0 89-41 89-101s-29-99-89-99c-61 0-89 39-89 99S79-25 140-24" id="Y"/><path fill="#333" d="M185-189c-5-48-123-54-124 2 14 75 158 14 163 119 3 78-121 87-175 55-17-10-28-26-33-46l33-7c5 56 141 63 141-1 0-78-155-14-162-118-5-82 145-84 179-34 5 7 8 16 11 25" id="Z"/><path fill="#333" d="M-5 72V49h209v23H-5" id="aa"/><path fill="#333" d="M160-131c35 5 61 23 61 61C221 17 115-2 30 0v-248c76 3 177-17 177 60 0 33-19 50-47 57zm-97-11c50-1 110 9 110-42 0-47-63-36-110-37v79zm0 115c55-2 124 14 124-45 0-56-70-42-124-44v89" id="ab"/><path fill="#333" d="M114-163C36-179 61-72 57 0H25l-1-190h30c1 12-1 29 2 39 6-27 23-49 58-41v29" id="ac"/><path fill="#333" d="M24-231v-30h32v30H24zM24 0v-190h32V0H24" id="ad"/><path fill="#333" d="M85-194c31 0 48 13 60 33l-1-100h32l1 261h-30c-2-10 0-23-3-31C134-8 116 4 85 4 32 4 16-35 15-94c0-66 23-100 70-100zm9 24c-40 0-46 34-46 75 0 40 6 74 45 74 42 0 51-32 51-76 0-42-9-74-50-73" id="ae"/><path fill="#333" d="M177-190C167-65 218 103 67 71c-23-6-38-20-44-43l32-5c15 47 100 32 89-28v-30C133-14 115 1 83 1 29 1 15-40 15-95c0-56 16-97 71-98 29-1 48 16 59 35 1-10 0-23 2-32h30zM94-22c36 0 50-32 50-73 0-42-14-75-50-75-39 0-46 34-46 75s6 73 46 73" id="af"/><path fill="#333" d="M84 4C-5 8 30-112 23-190h32v120c0 31 7 50 39 49 72-2 45-101 50-169h31l1 190h-30c-1-10 1-25-2-33-11 22-28 36-60 37" id="ag"/><g id="b"><use transform="matrix(0.06172839506172839,0,0,0.06172839506172839,0,0)" xlink:href="#X"/><use transform="matrix(0.06172839506172839,0,0,0.06172839506172839,15.987654320987653,0)" xlink:href="#Y"/><use transform="matrix(0.06172839506172839,0,0,0.06172839506172839,33.2716049382716,0)" xlink:href="#Z"/><use transform="matrix(0.06172839506172839,0,0,0.06172839506172839,48.08641975308642,0)" xlink:href="#aa"/><use transform="matrix(0.06172839506172839,0,0,0.06172839506172839,60.432098765432094,0)" xlink:href="#ab"/><use transform="matrix(0.06172839506172839,0,0,0.06172839506172839,75.24691358024691,0)" xlink:href="#ac"/><use transform="matrix(0.06172839506172839,0,0,0.06172839506172839,82.5925925925926,0)" xlink:href="#ad"/><use transform="matrix(0.06172839506172839,0,0,0.06172839506172839,87.46913580246914,0)" xlink:href="#ae"/><use transform="matrix(0.06172839506172839,0,0,0.06172839506172839,99.81481481481482,0)" xlink:href="#af"/><use transform="matrix(0.06172839506172839,0,0,0.06172839506172839,112.16049382716051,0)" xlink:href="#U"/><use transform="matrix(0.06172839506172839,0,0,0.06172839506172839,124.50617283950619,0)" xlink:href="#aa"/><use transform="matrix(0.06172839506172839,0,0,0.06172839506172839,136.85185185185188,0)" xlink:href="#Z"/><use transform="matrix(0.06172839506172839,0,0,0.06172839506172839,151.66666666666669,0)" xlink:href="#ag"/><use transform="matrix(0.06172839506172839,0,0,0.06172839506172839,164.01234567901236,0)" xlink:href="#ad"/><use transform="matrix(0.06172839506172839,0,0,0.06172839506172839,168.88888888888889,0)" xlink:href="#W"/><use transform="matrix(0.06172839506172839,0,0,0.06172839506172839,175.06172839506172,0)" xlink:href="#U"/></g><path fill="#333" d="M30-248c87 1 191-15 191 75 0 78-77 80-158 76V0H30v-248zm33 125c57 0 124 11 124-50 0-59-68-47-124-48v98" id="ah"/><path fill="#333" d="M141-36C126-15 110 5 73 4 37 3 15-17 15-53c-1-64 63-63 125-63 3-35-9-54-41-54-24 1-41 7-42 31l-33-3c5-37 33-52 76-52 45 0 72 20 72 64v82c-1 20 7 32 28 27v20c-31 9-61-2-59-35zM48-53c0 20 12 33 32 33 41-3 63-29 60-74-43 2-92-5-92 41" id="ai"/><path fill="#333" d="M96-169c-40 0-48 33-48 73s9 75 48 75c24 0 41-14 43-38l32 2c-6 37-31 61-74 61-59 0-76-41-82-99-10-93 101-131 147-64 4 7 5 14 7 22l-32 3c-4-21-16-35-41-35" id="aj"/><path fill="#333" d="M143 0L79-87 56-68V0H24v-261h32v163l83-92h37l-77 82L181 0h-38" id="ak"/><g id="c"><use transform="matrix(0.06172839506172839,0,0,0.06172839506172839,0,0)" xlink:href="#ah"/><use transform="matrix(0.06172839506172839,0,0,0.06172839506172839,14.814814814814813,0)" xlink:href="#ai"/><use transform="matrix(0.06172839506172839,0,0,0.06172839506172839,27.160493827160494,0)" xlink:href="#aj"/><use transform="matrix(0.06172839506172839,0,0,0.06172839506172839,38.27160493827161,0)" xlink:href="#ak"/><use transform="matrix(0.06172839506172839,0,0,0.06172839506172839,49.38271604938272,0)" xlink:href="#ai"/><use transform="matrix(0.06172839506172839,0,0,0.06172839506172839,61.7283950617284,0)" xlink:href="#af"/><use transform="matrix(0.06172839506172839,0,0,0.06172839506172839,74.07407407407408,0)" xlink:href="#U"/></g><path fill="#333" d="M210-169c-67 3-38 105-44 169h-31v-121c0-29-5-50-35-48C34-165 62-65 56 0H25l-1-190h30c1 10-1 24 2 32 10-44 99-50 107 0 11-21 27-35 58-36 85-2 47 119 55 194h-31v-121c0-29-5-49-35-48" id="al"/><path fill="#333" d="M100-194c62-1 85 37 85 99 1 63-27 99-86 99S16-35 15-95c0-66 28-99 85-99zM99-20c44 1 53-31 53-75 0-43-8-75-51-75s-53 32-53 75 10 74 51 75" id="am"/><g id="d"><use transform="matrix(0.06172839506172839,0,0,0.06172839506172839,0,0)" xlink:href="#X"/><use transform="matrix(0.06172839506172839,0,0,0.06172839506172839,15.987654320987653,0)" xlink:href="#U"/><use transform="matrix(0.06172839506172839,0,0,0.06172839506172839,28.333333333333332,0)" xlink:href="#al"/><use transform="matrix(0.06172839506172839,0,0,0.06172839506172839,46.79012345679012,0)" xlink:href="#am"/><use transform="matrix(0.06172839506172839,0,0,0.06172839506172839,59.1358024691358,0)" xlink:href="#W"/><use transform="matrix(0.06172839506172839,0,0,0.06172839506172839,65.30864197530863,0)" xlink:href="#U"/></g><path fill="#333" d="M135-143c-3-34-86-38-87 0 15 53 115 12 119 90S17 21 10-45l28-5c4 36 97 45 98 0-10-56-113-15-118-90-4-57 82-63 122-42 12 7 21 19 24 35" id="an"/><g id="e"><use transform="matrix(0.06172839506172839,0,0,0.06172839506172839,0,0)" xlink:href="#X"/><use transform="matrix(0.06172839506172839,0,0,0.06172839506172839,15.987654320987653,0)" xlink:href="#am"/><use transform="matrix(0.06172839506172839,0,0,0.06172839506172839,28.333333333333332,0)" xlink:href="#an"/><use transform="matrix(0.06172839506172839,0,0,0.06172839506172839,39.44444444444444,0)" xlink:href="#aj"/><use transform="matrix(0.06172839506172839,0,0,0.06172839506172839,50.55555555555556,0)" xlink:href="#am"/><use transform="matrix(0.06172839506172839,0,0,0.06172839506172839,62.901234567901234,0)" xlink:href="#ac"/><use transform="matrix(0.06172839506172839,0,0,0.06172839506172839,70.24691358024691,0)" xlink:href="#U"/></g><path fill="#333" d="M30 0v-248h187v28H63v79h144v27H63v87h162V0H30" id="ao"/><path fill="#333" d="M240 0l2-218c-23 76-54 145-80 218h-23L58-218 59 0H30v-248h44l77 211c21-75 51-140 76-211h43V0h-30" id="ap"/><path fill="#333" d="M143 4C61 4 22-44 18-125c-5-107 100-154 193-111 17 8 29 25 37 43l-32 9c-13-25-37-40-76-40-61 0-88 39-88 99 0 61 29 100 91 101 35 0 62-11 79-27v-45h-74v-28h105v86C228-13 192 4 143 4" id="aq"/><g id="f"><use transform="matrix(0.06172839506172839,0,0,0.06172839506172839,0,0)" xlink:href="#ao"/><use transform="matrix(0.06172839506172839,0,0,0.06172839506172839,14.814814814814813,0)" xlink:href="#ap"/><use transform="matrix(0.06172839506172839,0,0,0.06172839506172839,33.2716049382716,0)" xlink:href="#aq"/></g><path fill="#333" d="M30-248c118-7 216 8 213 122C240-48 200 0 122 0H30v-248zM63-27c89 8 146-16 146-99s-60-101-146-95v194" id="ar"/><g id="g"><use transform="matrix(0.06172839506172839,0,0,0.06172839506172839,0,0)" xlink:href="#ar"/><use transform="matrix(0.06172839506172839,0,0,0.06172839506172839,15.987654320987653,0)" xlink:href="#ai"/><use transform="matrix(0.06172839506172839,0,0,0.06172839506172839,28.333333333333332,0)" xlink:href="#W"/><use transform="matrix(0.06172839506172839,0,0,0.06172839506172839,34.50617283950617,0)" xlink:href="#ai"/></g><path fill="#333" d="M33 0v-248h34V0H33" id="as"/><path fill="#333" d="M232-93c-1 65-40 97-104 97C67 4 28-28 28-90v-158h33c8 89-33 224 67 224 102 0 64-133 71-224h33v155" id="at"/><g id="h"><use transform="matrix(0.06172839506172839,0,0,0.06172839506172839,0,0)" xlink:href="#as"/><use transform="matrix(0.06172839506172839,0,0,0.06172839506172839,6.172839506172839,0)" xlink:href="#ap"/><use transform="matrix(0.06172839506172839,0,0,0.06172839506172839,24.629629629629626,0)" xlink:href="#at"/></g><path fill="#333" d="M212-179c-10-28-35-45-73-45-59 0-87 40-87 99 0 60 29 101 89 101 43 0 62-24 78-52l27 14C228-24 195 4 139 4 59 4 22-46 18-125c-6-104 99-153 187-111 19 9 31 26 39 46" id="au"/><path fill="#333" d="M24 0v-261h32V0H24" id="av"/><path fill="#333" d="M115-194c53 0 69 39 70 98 0 66-23 100-70 100C84 3 66-7 56-30L54 0H23l1-261h32v101c10-23 28-34 59-34zm-8 174c40 0 45-34 45-75 0-40-5-75-45-74-42 0-51 32-51 76 0 43 10 73 51 73" id="aw"/><g id="i"><use transform="matrix(0.06172839506172839,0,0,0.06172839506172839,0,0)" xlink:href="#au"/><use transform="matrix(0.06172839506172839,0,0,0.06172839506172839,15.987654320987653,0)" xlink:href="#ai"/><use transform="matrix(0.06172839506172839,0,0,0.06172839506172839,28.333333333333332,0)" xlink:href="#av"/><use transform="matrix(0.06172839506172839,0,0,0.06172839506172839,33.20987654320987,0)" xlink:href="#ad"/><use transform="matrix(0.06172839506172839,0,0,0.06172839506172839,38.08641975308642,0)" xlink:href="#aw"/><use transform="matrix(0.06172839506172839,0,0,0.06172839506172839,50.432098765432094,0)" xlink:href="#ac"/><use transform="matrix(0.06172839506172839,0,0,0.06172839506172839,57.77777777777777,0)" xlink:href="#ai"/><use transform="matrix(0.06172839506172839,0,0,0.06172839506172839,70.12345679012346,0)" xlink:href="#W"/><use transform="matrix(0.06172839506172839,0,0,0.06172839506172839,76.29629629629629,0)" xlink:href="#U"/><use transform="matrix(0.06172839506172839,0,0,0.06172839506172839,88.64197530864197,0)" xlink:href="#ae"/></g><path fill="#333" d="M115-194c55 1 70 41 70 98S169 2 115 4C84 4 66-9 55-30l1 105H24l-1-265h31l2 30c10-21 28-34 59-34zm-8 174c40 0 45-34 45-75s-6-73-45-74c-42 0-51 32-51 76 0 43 10 73 51 73" id="ax"/><path fill="#333" d="M209 0H11v-25l151-195H24v-28h176v25L50-27h159V0" id="ay"/><path fill="#333" d="M266 0h-40l-56-210L115 0H75L2-248h35L96-30l15-64 43-154h32l59 218 59-218h35" id="az"/><path fill="#333" d="M197 0v-115H63V0H30v-248h33v105h134v-105h34V0h-34" id="aA"/><g id="j"><use transform="matrix(0.06172839506172839,0,0,0.06172839506172839,0,0)" xlink:href="#X"/><use transform="matrix(0.06172839506172839,0,0,0.06172839506172839,15.987654320987653,0)" xlink:href="#ai"/><use transform="matrix(0.06172839506172839,0,0,0.06172839506172839,28.333333333333332,0)" xlink:href="#an"/><use transform="matrix(0.06172839506172839,0,0,0.06172839506172839,39.44444444444444,0)" xlink:href="#ax"/><use transform="matrix(0.06172839506172839,0,0,0.06172839506172839,51.79012345679012,0)" xlink:href="#ad"/><use transform="matrix(0.06172839506172839,0,0,0.06172839506172839,56.666666666666664,0)" xlink:href="#ay"/><use transform="matrix(0.06172839506172839,0,0,0.06172839506172839,70.18518518518518,0)" xlink:href="#U"/><use transform="matrix(0.06172839506172839,0,0,0.06172839506172839,82.53086419753086,0)" xlink:href="#ac"/><use transform="matrix(0.06172839506172839,0,0,0.06172839506172839,89.87654320987654,0)" xlink:href="#am"/><use transform="matrix(0.06172839506172839,0,0,0.06172839506172839,102.22222222222223,0)" xlink:href="#az"/><use transform="matrix(0.06172839506172839,0,0,0.06172839506172839,123.14814814814815,0)" xlink:href="#aA"/></g><g id="k"><use transform="matrix(0.06172839506172839,0,0,0.06172839506172839,0,0)" xlink:href="#az"/><use transform="matrix(0.06172839506172839,0,0,0.06172839506172839,20.493827160493826,0)" xlink:href="#U"/><use transform="matrix(0.06172839506172839,0,0,0.06172839506172839,32.839506172839506,0)" xlink:href="#ai"/><use transform="matrix(0.06172839506172839,0,0,0.06172839506172839,45.18518518518518,0)" xlink:href="#ac"/><use transform="matrix(0.06172839506172839,0,0,0.06172839506172839,52.53086419753086,0)" xlink:href="#ai"/><use transform="matrix(0.06172839506172839,0,0,0.06172839506172839,64.87654320987654,0)" xlink:href="#aw"/><use transform="matrix(0.06172839506172839,0,0,0.06172839506172839,77.22222222222223,0)" xlink:href="#av"/><use transform="matrix(0.06172839506172839,0,0,0.06172839506172839,82.09876543209877,0)" xlink:href="#U"/></g><path fill="#333" d="M54-142c48-35 137-8 131 61C196 18 31 33 14-55l32-4c7 23 22 37 52 37 35-1 51-22 54-58 4-55-73-65-99-34H22l8-134h141v27H59" id="aB"/><path fill="#333" d="M137 0h-34L2-248h35l83 218 83-218h36" id="aC"/><g id="l"><use transform="matrix(0.049382716049382706,0,0,0.049382716049382706,0,0)" xlink:href="#aB"/><use transform="matrix(0.049382716049382706,0,0,0.049382716049382706,9.87654320987654,0)" xlink:href="#aC"/></g><path fill="#333" d="M206 0h-36l-40-164L89 0H53L-1-190h32L70-26l43-164h34l41 164 42-164h31" id="aD"/><g id="m"><use transform="matrix(0.049382716049382706,0,0,0.049382716049382706,0,0)" xlink:href="#ah"/><use transform="matrix(0.049382716049382706,0,0,0.049382716049382706,11.85185185185185,0)" xlink:href="#am"/><use transform="matrix(0.049382716049382706,0,0,0.049382716049382706,21.728395061728392,0)" xlink:href="#aD"/><use transform="matrix(0.049382716049382706,0,0,0.049382716049382706,34.51851851851851,0)" xlink:href="#U"/><use transform="matrix(0.049382716049382706,0,0,0.049382716049382706,44.39506172839505,0)" xlink:href="#ac"/></g><path fill="#333" d="M179-190L93 31C79 59 56 82 12 73V49c39 6 53-20 64-50L1-190h34L92-34l54-156h33" id="aE"/><g id="n"><use transform="matrix(0.049382716049382706,0,0,0.049382716049382706,0,0)" xlink:href="#Z"/><use transform="matrix(0.049382716049382706,0,0,0.049382716049382706,11.85185185185185,0)" xlink:href="#ag"/><use transform="matrix(0.049382716049382706,0,0,0.049382716049382706,21.728395061728392,0)" xlink:href="#ax"/><use transform="matrix(0.049382716049382706,0,0,0.049382716049382706,31.604938271604933,0)" xlink:href="#ax"/><use transform="matrix(0.049382716049382706,0,0,0.049382716049382706,41.481481481481474,0)" xlink:href="#av"/><use transform="matrix(0.049382716049382706,0,0,0.049382716049382706,45.38271604938271,0)" xlink:href="#aE"/></g><path d="M205 0l-28-72H64L36 0H1l101-248h38L239 0h-34zm-38-99l-47-123c-12 45-31 82-46 123h93" id="aF"/><path d="M24 0v-261h32V0H24" id="aG"/><path d="M59-47c-2 24 18 29 38 22v24C64 9 27 4 27-40v-127H5v-23h24l9-43h21v43h35v23H59v120" id="aH"/><g id="o"><use transform="matrix(0.05432111111111112,0,0,0.05432111111111112,0,0)" xlink:href="#aF"/><use transform="matrix(0.05432111111111112,0,0,0.05432111111111112,13.037066666666668,0)" xlink:href="#aG"/><use transform="matrix(0.05432111111111112,0,0,0.05432111111111112,17.328434444444447,0)" xlink:href="#aH"/></g><path d="M33 0v-248h34V0H33" id="aI"/><path d="M240 0l2-218c-23 76-54 145-80 218h-23L58-218 59 0H30v-248h44l77 211c21-75 51-140 76-211h43V0h-30" id="aJ"/><path d="M232-93c-1 65-40 97-104 97C67 4 28-28 28-90v-158h33c8 89-33 224 67 224 102 0 64-133 71-224h33v155" id="aK"/><path d="M16-82v-28h88v28H16" id="aL"/><path d="M27 0v-27h64v-190l-56 39v-29l58-41h29v221h61V0H27" id="aM"/><path d="M101-251c68 0 85 55 85 127S166 4 100 4C33 4 14-52 14-124c0-73 17-127 87-127zm-1 229c47 0 54-49 54-102s-4-102-53-102c-51 0-55 48-55 102 0 53 5 102 54 102" id="aN"/><g id="p"><use transform="matrix(0.05432111111111112,0,0,0.05432111111111112,0,0)" xlink:href="#aI"/><use transform="matrix(0.05432111111111112,0,0,0.05432111111111112,5.432111111111112,0)" xlink:href="#aJ"/><use transform="matrix(0.05432111111111112,0,0,0.05432111111111112,21.674123333333338,0)" xlink:href="#aK"/><use transform="matrix(0.05432111111111112,0,0,0.05432111111111112,35.74329111111112,0)" xlink:href="#aL"/><use transform="matrix(0.05432111111111112,0,0,0.05432111111111112,42.20750333333334,0)" xlink:href="#aM"/><use transform="matrix(0.05432111111111112,0,0,0.05432111111111112,53.07172555555557,0)" xlink:href="#aN"/></g><path d="M108 0H70L1-190h34L89-25l56-165h34" id="aO"/><path d="M54-142c48-35 137-8 131 61C196 18 31 33 14-55l32-4c7 23 22 37 52 37 35-1 51-22 54-58 4-55-73-65-99-34H22l8-134h141v27H59" id="aP"/><g id="q"><use transform="matrix(0.05432111111111112,0,0,0.05432111111111112,0,0)" xlink:href="#aO"/><use transform="matrix(0.05432111111111112,0,0,0.05432111111111112,9.777800000000001,0)" xlink:href="#aP"/></g><path d="M179-190L93 31C79 59 56 82 12 73V49c39 6 53-20 64-50L1-190h34L92-34l54-156h33" id="aQ"/><path d="M100-194c62-1 85 37 85 99 1 63-27 99-86 99S16-35 15-95c0-66 28-99 85-99zM99-20c44 1 53-31 53-75 0-43-8-75-51-75s-53 32-53 75 10 74 51 75" id="aR"/><path d="M206 0h-36l-40-164L89 0H53L-1-190h32L70-26l43-164h34l41 164 42-164h31" id="aS"/><path d="M141-36C126-15 110 5 73 4 37 3 15-17 15-53c-1-64 63-63 125-63 3-35-9-54-41-54-24 1-41 7-42 31l-33-3c5-37 33-52 76-52 45 0 72 20 72 64v82c-1 20 7 32 28 27v20c-31 9-61-2-59-35zM48-53c0 20 12 33 32 33 41-3 63-29 60-74-43 2-92-5-92 41" id="aT"/><path d="M114-163C36-179 61-72 57 0H25l-1-190h30c1 12-1 29 2 39 6-27 23-49 58-41v29" id="aU"/><path d="M100-194c63 0 86 42 84 106H49c0 40 14 67 53 68 26 1 43-12 49-29l28 8c-11 28-37 45-77 45C44 4 14-33 15-96c1-61 26-98 85-98zm52 81c6-60-76-77-97-28-3 7-6 17-6 28h103" id="aV"/><g id="r"><use transform="matrix(0.05432111111111112,0,0,0.05432111111111112,0,0)" xlink:href="#aJ"/><use transform="matrix(0.05432111111111112,0,0,0.05432111111111112,16.242012222222225,0)" xlink:href="#aQ"/><use transform="matrix(0.05432111111111112,0,0,0.05432111111111112,26.019812222222228,0)" xlink:href="#aR"/><use transform="matrix(0.05432111111111112,0,0,0.05432111111111112,36.88403444444445,0)" xlink:href="#aS"/><use transform="matrix(0.05432111111111112,0,0,0.05432111111111112,50.95320222222223,0)" xlink:href="#aT"/><use transform="matrix(0.05432111111111112,0,0,0.05432111111111112,61.817424444444455,0)" xlink:href="#aU"/><use transform="matrix(0.05432111111111112,0,0,0.05432111111111112,68.28163666666669,0)" xlink:href="#aV"/></g><path d="M30 0v-248h187v28H63v79h144v27H63v87h162V0H30" id="aW"/><path d="M143 4C61 4 22-44 18-125c-5-107 100-154 193-111 17 8 29 25 37 43l-32 9c-13-25-37-40-76-40-61 0-88 39-88 99 0 61 29 100 91 101 35 0 62-11 79-27v-45h-74v-28h105v86C228-13 192 4 143 4" id="aX"/><path d="M135-143c-3-34-86-38-87 0 15 53 115 12 119 90S17 21 10-45l28-5c4 36 97 45 98 0-10-56-113-15-118-90-4-57 82-63 122-42 12 7 21 19 24 35" id="aY"/><g id="s"><use transform="matrix(0.05432111111111112,0,0,0.05432111111111112,0,0)" xlink:href="#aW"/><use transform="matrix(0.05432111111111112,0,0,0.05432111111111112,13.037066666666668,0)" xlink:href="#aJ"/><use transform="matrix(0.05432111111111112,0,0,0.05432111111111112,29.279078888888893,0)" xlink:href="#aX"/><use transform="matrix(0.05432111111111112,0,0,0.05432111111111112,44.48899000000001,0)" xlink:href="#aY"/></g><path fill="#333" d="M27 0v-27h64v-190l-56 39v-29l58-41h29v221h61V0H27" id="aZ"/><path fill="#333" d="M110-160c48 1 74 30 74 79 0 53-28 85-80 85-65 0-83-55-86-122-5-90 50-162 133-122 14 7 22 21 27 39l-31 6c-5-40-67-38-82-6-9 19-15 44-15 74 11-20 30-34 60-33zm-7 138c34 0 49-23 49-58s-16-56-50-56c-29 0-50 16-49 49 1 36 15 65 50 65" id="ba"/><g id="t"><use transform="matrix(0.06172839506172839,0,0,0.06172839506172839,0,0)" xlink:href="#aZ"/><use transform="matrix(0.06172839506172839,0,0,0.06172839506172839,12.345679012345679,0)" xlink:href="#ba"/></g><g id="u"><use transform="matrix(0.06172839506172839,0,0,0.06172839506172839,0,0)" xlink:href="#ab"/><use transform="matrix(0.06172839506172839,0,0,0.06172839506172839,14.814814814814813,0)" xlink:href="#ad"/><use transform="matrix(0.06172839506172839,0,0,0.06172839506172839,19.691358024691354,0)" xlink:href="#W"/></g><path fill="#333" d="M205 0l-28-72H64L36 0H1l101-248h38L239 0h-34zm-38-99l-47-123c-12 45-31 82-46 123h93" id="bb"/><g id="v"><use transform="matrix(0.06172839506172839,0,0,0.06172839506172839,0,0)" xlink:href="#bb"/><use transform="matrix(0.06172839506172839,0,0,0.06172839506172839,14.814814814814813,0)" xlink:href="#ar"/><use transform="matrix(0.06172839506172839,0,0,0.06172839506172839,30.80246913580247,0)" xlink:href="#au"/></g><path fill="#333" d="M128-127c34 4 56 21 59 58 7 91-148 94-172 28-4-9-6-17-7-26l51-5c1 24 16 35 40 36 23 0 39-12 38-36-1-31-31-36-65-34v-40c32 2 59-3 59-33 0-20-13-33-34-33s-33 13-35 32l-50-3c6-44 37-68 86-68 50 0 83 20 83 66 0 35-22 52-53 58" id="bc"/><path fill="#333" d="M147 0H94L2-248h55l64 206c17-72 42-137 63-206h54" id="bd"/><g id="w"><use transform="matrix(0.04938271604938272,0,0,0.04938271604938272,0,0)" xlink:href="#bc"/><use transform="matrix(0.04938271604938272,0,0,0.04938271604938272,9.876543209876544,0)" xlink:href="#bd"/><use transform="matrix(0.04938271604938272,0,0,0.04938271604938272,21.7283950617284,0)" xlink:href="#bc"/></g><path fill="#333" d="M24-248c93 1 206-16 204 79-1 75-69 88-152 82V0H24v-248zm52 121c47 0 100 7 100-41 0-47-54-39-100-39v80" id="be"/><path fill="#333" d="M25-224v-37h50v37H25zM25 0v-190h50V0H25" id="bf"/><g id="x"><use transform="matrix(0.04938271604938272,0,0,0.04938271604938272,0,0)" xlink:href="#be"/><use transform="matrix(0.04938271604938272,0,0,0.04938271604938272,11.851851851851853,0)" xlink:href="#bf"/></g><g id="y"><use transform="matrix(0.04938271604938272,0,0,0.04938271604938272,0,0)" xlink:href="#bc"/><use transform="matrix(0.04938271604938272,0,0,0.04938271604938272,9.876543209876544,0)" xlink:href="#bd"/><use transform="matrix(0.04938271604938272,0,0,0.04938271604938272,21.7283950617284,0)" xlink:href="#bc"/></g><path fill="#333" d="M140-251c80 0 125 45 125 126S219 4 139 4C58 4 15-44 15-125s44-126 125-126zm-1 214c52 0 73-35 73-88 0-50-21-86-72-86-52 0-73 35-73 86s22 88 72 88" id="bg"/><path fill="#333" d="M85 4C-2 5 27-109 22-190h50c7 57-23 150 33 157 60-5 35-97 40-157h50l1 190h-47c-2-12 1-28-3-38-12 25-28 42-61 42" id="bh"/><path fill="#333" d="M115-3C79 11 28 4 28-45v-112H4v-33h27l15-45h31v45h36v33H77v99c-1 23 16 31 38 25v30" id="bi"/><path fill="#333" d="M135-194c53 0 70 44 70 98 0 56-19 98-73 100-31 1-45-17-59-34 3 33 2 69 2 105H25l-1-265h48c2 10 0 23 3 31 11-24 29-35 60-35zM114-30c33 0 39-31 40-66 0-38-9-64-40-64-56 0-55 130 0 130" id="bj"/><g id="z"><use transform="matrix(0.04938271604938272,0,0,0.04938271604938272,0,0)" xlink:href="#bg"/><use transform="matrix(0.04938271604938272,0,0,0.04938271604938272,13.827160493827162,0)" xlink:href="#bh"/><use transform="matrix(0.04938271604938272,0,0,0.04938271604938272,24.641975308641975,0)" xlink:href="#bi"/><use transform="matrix(0.04938271604938272,0,0,0.04938271604938272,30.518518518518523,0)" xlink:href="#bj"/><use transform="matrix(0.04938271604938272,0,0,0.04938271604938272,41.333333333333336,0)" xlink:href="#bh"/><use transform="matrix(0.04938271604938272,0,0,0.04938271604938272,52.14814814814815,0)" xlink:href="#bi"/></g><g id="A"><use transform="matrix(0.06172839506172839,0,0,0.06172839506172839,0,0)" xlink:href="#X"/><use transform="matrix(0.06172839506172839,0,0,0.06172839506172839,15.987654320987653,0)" xlink:href="#am"/><use transform="matrix(0.06172839506172839,0,0,0.06172839506172839,28.333333333333332,0)" xlink:href="#aw"/><use transform="matrix(0.06172839506172839,0,0,0.06172839506172839,40.67901234567901,0)" xlink:href="#am"/><use transform="matrix(0.06172839506172839,0,0,0.06172839506172839,53.02469135802469,0)" xlink:href="#W"/></g><path fill="#333" d="M24 0v-248h52V0H24" id="bk"/><path fill="#333" d="M182-182c0 78-84 86-111 141h115V0H12c-6-101 99-100 120-180 1-22-12-31-33-32-23 0-32 14-35 34l-49-3c5-45 32-70 84-70 51 0 83 22 83 69" id="bl"/><path fill="#333" d="M67-125c0 53 21 87 73 88 37 1 54-22 65-47l45 17C233-25 199 4 140 4 58 4 20-42 15-125 8-235 124-281 211-232c18 10 29 29 36 50l-46 12c-8-25-30-41-62-41-52 0-71 34-72 86" id="bm"/><g id="B"><use transform="matrix(0.04938271604938272,0,0,0.04938271604938272,0,0)" xlink:href="#bk"/><use transform="matrix(0.04938271604938272,0,0,0.04938271604938272,4.938271604938272,0)" xlink:href="#bl"/><use transform="matrix(0.04938271604938272,0,0,0.04938271604938272,14.814814814814817,0)" xlink:href="#bm"/></g><path fill="#333" d="M117-194c89-4 53 116 60 194h-32v-121c0-31-8-49-39-48C34-167 62-67 57 0H25l-1-190h30c1 10-1 24 2 32 11-22 29-35 61-36" id="bn"/><g id="C"><use transform="matrix(0.06172839506172839,0,0,0.06172839506172839,0,0)" xlink:href="#X"/><use transform="matrix(0.06172839506172839,0,0,0.06172839506172839,15.987654320987653,0)" xlink:href="#am"/><use transform="matrix(0.06172839506172839,0,0,0.06172839506172839,28.333333333333332,0)" xlink:href="#aw"/><use transform="matrix(0.06172839506172839,0,0,0.06172839506172839,40.67901234567901,0)" xlink:href="#am"/><use transform="matrix(0.06172839506172839,0,0,0.06172839506172839,53.02469135802469,0)" xlink:href="#ak"/><use transform="matrix(0.06172839506172839,0,0,0.06172839506172839,64.1358024691358,0)" xlink:href="#ad"/><use transform="matrix(0.06172839506172839,0,0,0.06172839506172839,69.01234567901234,0)" xlink:href="#bn"/><use transform="matrix(0.06172839506172839,0,0,0.06172839506172839,81.35802469135803,0)" xlink:href="#U"/><use transform="matrix(0.06172839506172839,0,0,0.06172839506172839,93.70370370370371,0)" xlink:href="#an"/><use transform="matrix(0.06172839506172839,0,0,0.06172839506172839,104.81481481481482,0)" xlink:href="#ad"/><use transform="matrix(0.06172839506172839,0,0,0.06172839506172839,109.69135802469137,0)" xlink:href="#an"/></g><g id="D"><use transform="matrix(0.06172839506172839,0,0,0.06172839506172839,0,0)" xlink:href="#X"/><use transform="matrix(0.06172839506172839,0,0,0.06172839506172839,15.987654320987653,0)" xlink:href="#Y"/><use transform="matrix(0.06172839506172839,0,0,0.06172839506172839,33.2716049382716,0)" xlink:href="#Z"/></g><g id="E"><use transform="matrix(0.06172839506172839,0,0,0.06172839506172839,0,0)" xlink:href="#ax"/><use transform="matrix(0.06172839506172839,0,0,0.06172839506172839,12.345679012345679,0)" xlink:href="#ai"/><use transform="matrix(0.06172839506172839,0,0,0.06172839506172839,24.691358024691358,0)" xlink:href="#aj"/><use transform="matrix(0.06172839506172839,0,0,0.06172839506172839,35.80246913580247,0)" xlink:href="#ak"/><use transform="matrix(0.06172839506172839,0,0,0.06172839506172839,46.91358024691358,0)" xlink:href="#ai"/><use transform="matrix(0.06172839506172839,0,0,0.06172839506172839,59.25925925925926,0)" xlink:href="#af"/><use transform="matrix(0.06172839506172839,0,0,0.06172839506172839,71.60493827160494,0)" xlink:href="#U"/></g><path fill="#333" d="M16-82v-28h88v28H16" id="bo"/><g id="F"><use transform="matrix(0.049382716049382706,0,0,0.049382716049382706,0,0)" xlink:href="#ap"/><use transform="matrix(0.049382716049382706,0,0,0.049382716049382706,14.765432098765428,0)" xlink:href="#ag"/><use transform="matrix(0.049382716049382706,0,0,0.049382716049382706,24.641975308641968,0)" xlink:href="#av"/><use transform="matrix(0.049382716049382706,0,0,0.049382716049382706,28.543209876543205,0)" xlink:href="#W"/><use transform="matrix(0.049382716049382706,0,0,0.049382716049382706,33.481481481481474,0)" xlink:href="#ad"/><use transform="matrix(0.049382716049382706,0,0,0.049382716049382706,37.38271604938271,0)" xlink:href="#bo"/><use transform="matrix(0.049382716049382706,0,0,0.049382716049382706,43.25925925925925,0)" xlink:href="#aj"/><use transform="matrix(0.049382716049382706,0,0,0.049382716049382706,52.14814814814814,0)" xlink:href="#av"/><use transform="matrix(0.049382716049382706,0,0,0.049382716049382706,56.04938271604937,0)" xlink:href="#ai"/><use transform="matrix(0.049382716049382706,0,0,0.049382716049382706,65.92592592592591,0)" xlink:href="#an"/><use transform="matrix(0.049382716049382706,0,0,0.049382716049382706,74.8148148148148,0)" xlink:href="#an"/></g><g id="G"><use transform="matrix(0.049382716049382706,0,0,0.049382716049382706,0,0)" xlink:href="#ah"/><use transform="matrix(0.049382716049382706,0,0,0.049382716049382706,11.85185185185185,0)" xlink:href="#U"/><use transform="matrix(0.049382716049382706,0,0,0.049382716049382706,21.728395061728392,0)" xlink:href="#ac"/><use transform="matrix(0.049382716049382706,0,0,0.049382716049382706,27.604938271604933,0)" xlink:href="#aj"/><use transform="matrix(0.049382716049382706,0,0,0.049382716049382706,36.49382716049382,0)" xlink:href="#U"/><use transform="matrix(0.049382716049382706,0,0,0.049382716049382706,46.37037037037037,0)" xlink:href="#ax"/><use transform="matrix(0.049382716049382706,0,0,0.049382716049382706,56.24691358024691,0)" xlink:href="#W"/><use transform="matrix(0.049382716049382706,0,0,0.049382716049382706,61.18518518518518,0)" xlink:href="#ac"/><use transform="matrix(0.049382716049382706,0,0,0.049382716049382706,67.06172839506172,0)" xlink:href="#am"/><use transform="matrix(0.049382716049382706,0,0,0.049382716049382706,76.93827160493827,0)" xlink:href="#bn"/></g><path fill="#333" d="M4 7l51-268h42L46 7H4" id="bp"/><path fill="#333" d="M110-194c64 0 96 36 96 99 0 64-35 99-97 99-61 0-95-36-95-99 0-62 34-99 96-99zm-1 164c35 0 45-28 45-65 0-40-10-65-43-65-34 0-45 26-45 65 0 36 10 65 43 65" id="bq"/><path fill="#333" d="M190-63c-7 42-38 67-86 67-59 0-84-38-90-98-12-110 154-137 174-36l-49 2c-2-19-15-32-35-32-30 0-35 28-38 64-6 74 65 87 74 30" id="br"/><g id="H"><use transform="matrix(0.04938271604938272,0,0,0.04938271604938272,0,0)" xlink:href="#bp"/><use transform="matrix(0.04938271604938272,0,0,0.04938271604938272,4.938271604938272,0)" xlink:href="#bi"/><use transform="matrix(0.04938271604938272,0,0,0.04938271604938272,10.814814814814817,0)" xlink:href="#bq"/><use transform="matrix(0.04938271604938272,0,0,0.04938271604938272,21.629629629629633,0)" xlink:href="#bj"/><use transform="matrix(0.04938271604938272,0,0,0.04938271604938272,32.44444444444445,0)" xlink:href="#bf"/><use transform="matrix(0.04938271604938272,0,0,0.04938271604938272,37.38271604938272,0)" xlink:href="#br"/></g><path fill="#333" d="M144 0l-44-69L55 0H2l70-98-66-92h53l41 62 40-62h54l-67 91 71 99h-54" id="bs"/><use transform="matrix(0.04938271604938272,0,0,0.04938271604938272,0,0)" xlink:href="#bs" id="I"/><path fill="#333" d="M123 10C108 53 80 86 19 72V37c35 8 53-11 59-39L3-190h52l48 148c12-52 28-100 44-148h51" id="bt"/><use transform="matrix(0.04938271604938272,0,0,0.04938271604938272,0,0)" xlink:href="#bt" id="J"/><path fill="#333" d="M12 0v-35l95-120H19v-35h142v35L67-36h103V0H12" id="bu"/><use transform="matrix(0.04938271604938272,0,0,0.04938271604938272,0,0)" xlink:href="#bu" id="K"/><g id="L"><use transform="matrix(0.03703703703703702,0,0,0.03703703703703702,0,0)" xlink:href="#ap"/><use transform="matrix(0.03703703703703702,0,0,0.03703703703703702,11.074074074074069,0)" xlink:href="#ai"/><use transform="matrix(0.03703703703703702,0,0,0.03703703703703702,18.481481481481474,0)" xlink:href="#ax"/><use transform="matrix(0.03703703703703702,0,0,0.03703703703703702,25.88888888888888,0)" xlink:href="#ax"/><use transform="matrix(0.03703703703703702,0,0,0.03703703703703702,33.29629629629628,0)" xlink:href="#U"/><use transform="matrix(0.03703703703703702,0,0,0.03703703703703702,40.70370370370369,0)" xlink:href="#ae"/></g><g id="M"><use transform="matrix(0.03703703703703702,0,0,0.03703703703703702,0,0)" xlink:href="#X"/><use transform="matrix(0.03703703703703702,0,0,0.03703703703703702,9.592592592592588,0)" xlink:href="#Y"/><use transform="matrix(0.03703703703703702,0,0,0.03703703703703702,19.962962962962955,0)" xlink:href="#Z"/></g><g id="N"><use transform="matrix(0.03703703703703702,0,0,0.03703703703703702,0,0)" xlink:href="#al"/><use transform="matrix(0.03703703703703702,0,0,0.03703703703703702,11.074074074074069,0)" xlink:href="#U"/><use transform="matrix(0.03703703703703702,0,0,0.03703703703703702,18.481481481481474,0)" xlink:href="#an"/><use transform="matrix(0.03703703703703702,0,0,0.03703703703703702,25.148148148148138,0)" xlink:href="#an"/><use transform="matrix(0.03703703703703702,0,0,0.03703703703703702,31.814814814814802,0)" xlink:href="#ai"/><use transform="matrix(0.03703703703703702,0,0,0.03703703703703702,39.22222222222221,0)" xlink:href="#af"/><use transform="matrix(0.03703703703703702,0,0,0.03703703703703702,46.62962962962961,0)" xlink:href="#U"/><use transform="matrix(0.03703703703703702,0,0,0.03703703703703702,54.03703703703702,0)" xlink:href="#an"/></g><g id="O"><use transform="matrix(0.03703703703703702,0,0,0.03703703703703702,0,0)" xlink:href="#Z"/><use transform="matrix(0.03703703703703702,0,0,0.03703703703703702,8.888888888888886,0)" xlink:href="#U"/><use transform="matrix(0.03703703703703702,0,0,0.03703703703703702,16.29629629629629,0)" xlink:href="#bn"/><use transform="matrix(0.03703703703703702,0,0,0.03703703703703702,23.703703703703695,0)" xlink:href="#an"/><use transform="matrix(0.03703703703703702,0,0,0.03703703703703702,30.370370370370363,0)" xlink:href="#am"/><use transform="matrix(0.03703703703703702,0,0,0.03703703703703702,37.777777777777764,0)" xlink:href="#ac"/></g><g id="P"><use transform="matrix(0.03703703703703702,0,0,0.03703703703703702,0,0)" xlink:href="#ar"/><use transform="matrix(0.03703703703703702,0,0,0.03703703703703702,9.592592592592588,0)" xlink:href="#ai"/><use transform="matrix(0.03703703703703702,0,0,0.03703703703703702,16.999999999999993,0)" xlink:href="#W"/><use transform="matrix(0.03703703703703702,0,0,0.03703703703703702,20.703703703703695,0)" xlink:href="#ai"/></g><path fill="#333" d="M238-95c0 69-44 99-111 99C63 4 22-25 22-93v-155h51v151c-1 38 19 59 55 60 90 1 49-130 58-211h52v153" id="bv"/><path fill="#333" d="M24-248c120-7 223 5 221 122C244-46 201 0 124 0H24v-248zM76-40c74 7 117-18 117-86 0-67-45-88-117-82v168" id="bw"/><g id="Q"><use transform="matrix(0.04938271604938272,0,0,0.04938271604938272,0,0)" xlink:href="#bv"/><use transform="matrix(0.04938271604938272,0,0,0.04938271604938272,12.790123456790125,0)" xlink:href="#bw"/><use transform="matrix(0.04938271604938272,0,0,0.04938271604938272,25.58024691358025,0)" xlink:href="#be"/></g><path fill="#333" d="M135-150c-39-12-60 13-60 57V0H25l-1-190h47c2 13-1 29 3 40 6-28 27-53 61-41v41" id="bx"/><g id="R"><use transform="matrix(0.04938271604938272,0,0,0.04938271604938272,0,0)" xlink:href="#be"/><use transform="matrix(0.04938271604938272,0,0,0.04938271604938272,11.851851851851853,0)" xlink:href="#bq"/><use transform="matrix(0.04938271604938272,0,0,0.04938271604938272,22.666666666666668,0)" xlink:href="#bx"/><use transform="matrix(0.04938271604938272,0,0,0.04938271604938272,29.58024691358025,0)" xlink:href="#bi"/></g><path fill="#333" d="M99-251c69 0 84 53 88 123 5 99-61 162-144 118-15-8-21-25-26-45l46-6c4 31 50 33 63 7 7-15 12-36 12-60-9 18-29 28-54 28-48 0-72-32-72-82 0-55 31-83 87-83zm-1 128c24 0 37-16 37-39 0-27-10-51-37-51-25 0-35 19-35 45 0 25 10 45 35 45" id="by"/><path fill="#333" d="M101-251c68 0 84 54 84 127C185-50 166 4 99 4S15-52 14-124c-1-75 17-127 87-127zm-1 216c37-5 36-46 36-89s4-89-36-89c-39 0-36 45-36 89 0 43-3 85 36 89" id="bz"/><g id="S"><use transform="matrix(0.04938271604938272,0,0,0.04938271604938272,0,0)" xlink:href="#by"/><use transform="matrix(0.04938271604938272,0,0,0.04938271604938272,9.876543209876544,0)" xlink:href="#bz"/><use transform="matrix(0.04938271604938272,0,0,0.04938271604938272,19.75308641975309,0)" xlink:href="#by"/><use transform="matrix(0.04938271604938272,0,0,0.04938271604938272,29.629629629629633,0)" xlink:href="#bz"/></g></defs></g></svg>